<svg id="_0151_step_1" xmlns="http://www.w3.org/2000/svg" viewBox="0 0 500 500" data-imageid="step-one-46" imageName="Step One" class="illustrations_image" style="width: 214px;"><defs><style>.cls-1_step-one-46{fill:#fff;}.cls-2_step-one-46{fill:#f4a28c;}.cls-3_step-one-46{opacity:.46;}.cls-3_step-one-46,.cls-4_step-one-46,.cls-5_step-one-46,.cls-6_step-one-46,.cls-7_step-one-46,.cls-8_step-one-46{fill:none;}.cls-4_step-one-46{opacity:.58;}.cls-9_step-one-46{fill:#ce8172;}.cls-10_step-one-46{fill:#e6e6e6;}.cls-5_step-one-46{opacity:.03;}.cls-6_step-one-46{opacity:.73;}.cls-7_step-one-46{opacity:.08;}.cls-8_step-one-46{opacity:.31;}.cls-11_step-one-46{fill:#24285b;}.cls-12_step-one-46{fill:#000001;}.cls-13_step-one-46{fill:#ffd200;}.cls-14_step-one-46{fill:#68e1fd;}</style></defs><g id="sd_step-one-46" class="cls-5_step-one-46"><ellipse class="cls-12_step-one-46" cx="250" cy="467.88" rx="235.47" ry="16.53"/></g><g id="_2_step-one-46"><rect class="cls-10_step-one-46" x="188.64" y="295.89" width="92.28" height="173.02"/></g><g id="_3_step-one-46"><rect class="cls-10_step-one-46" x="312.95" y="197.23" width="92.28" height="271.68"/></g><g id="plant_step-one-46"><g class="cls-4_step-one-46"><path class="cls-14_step-one-46 targetColor" d="m433.86,447.36s-12.72-3.47-15.48-15.31c0,0,19.7-3.98,20.27,16.36l-4.78-1.05Z" style="fill: rgb(254, 184, 28);"/></g><g class="cls-6_step-one-46"><path class="cls-14_step-one-46 targetColor" d="m435.41,446.1s-8.88-14.05-1.07-27.18c0,0,14.98,9.51,8.33,27.21l-7.26-.03Z" style="fill: rgb(254, 184, 28);"/></g><path class="cls-14_step-one-46 targetColor" d="m437.7,446.11s4.69-14.83,18.88-17.64c0,0,2.66,9.63-9.19,17.68l-9.7-.04Z" style="fill: rgb(254, 184, 28);"/><polygon class="cls-11_step-one-46" points="428.48 445.78 431.06 463.42 447.29 463.48 449.69 445.87 428.48 445.78"/></g><g id="person_step-one-46"><path class="cls-14_step-one-46 targetColor" d="m168.39,94.62c-4.98,10.45-.35,22.96,10.25,27.61,22.28,9.78,55.7,28.75,83.2,22.94,35.65-7.53,29.83-87.35,29.83-87.35l-14.66-1.12s8.59,102.66-74.52,28.05c-10.58-9.5-27.99-2.98-34.1,9.86h0Z" style="fill: rgb(254, 184, 28);"/><g class="cls-3_step-one-46"><path class="cls-1_step-one-46" d="m168.39,94.62c-4.98,10.45-.35,22.96,10.25,27.61,22.28,9.78,55.7,28.75,83.2,22.94,35.65-7.53,29.83-87.35,29.83-87.35l-14.66-1.12s8.59,102.66-74.52,28.05c-10.58-9.5-27.99-2.98-34.1,9.86h0Z"/></g><path class="cls-14_step-one-46 targetColor" d="m90.99,345.44s0,6.34,4.91,8.6c4.92,2.26,4.46,7.7-.57,7.34-5.03-.35-14.67-10.46-14.67-10.46l3.77-9.14,6.56,3.65Z" style="fill: rgb(254, 184, 28);"/><path class="cls-14_step-one-46 targetColor" d="m253.17,284.35s2.89,5.65,8.29,5.42c5.41-.23,7.48,4.82,2.84,6.8-4.64,1.98-17.83-2.62-17.83-2.62l-.81-9.85,7.51.26Z" style="fill: rgb(254, 184, 28);"/><path class="cls-2_step-one-46" d="m171.97,31.01s.13,10.9-2.23,17.96c-.96,2.86-4.11,4.43-6.96,3.44-3.54-1.24-7.97-3.94-8.75-9.77l-2.54-9.73s-1.38-6.15,5.08-10.1c6.45-3.95,15.65,1.57,15.39,8.21Z"/><polygon class="cls-2_step-one-46" points="151.96 34.66 143.74 69.41 163.22 72.57 161.38 46.02 151.96 34.66"/><path class="cls-11_step-one-46" d="m169.25,31.26c-1.9-.04-5.39-.32-9.96-1.52,0,0,3.04,4.98-.74,9.94-3.79,4.96-9.13,2.28-9.13,2.28l1.22-13.94c.23-4.08,2.65-7.71,6.34-9.45,1.51-.71,3.17-1.4,4.83-1.93,4.14-1.31,9.82,1.81,13.63-.63,1.67-1.07,3.88.05,4.03,2.03.31,4.29-.95,10.92-6.86,12.81-1.08.35-2.22.44-3.36.42Z"/><path class="cls-2_step-one-46" d="m159.73,39.45s.23-4.19-2.94-4.1c-3.17.09-3.54,6.14.69,7.02l2.24-2.92Z"/><path class="cls-2_step-one-46" d="m171.7,37.88l2.71,4.41c.67,1.09-.02,2.51-1.29,2.65l-4.21.47,2.79-7.53Z"/><g class="cls-8_step-one-46"><path class="cls-9_step-one-46" d="m162.03,51.81s-3.57-1.01-6.08-4.27c0,0-.21,6.53,6.47,13.5l-.39-9.23Z"/></g><path class="cls-14_step-one-46 targetColor" d="m143.74,69.41l13.25,2.15c3.23.52,6.48.9,9.75,1.04,10.47.45,41.35,4.53,52.3,36.61,13.27,38.89-33.86,102.31-33.86,102.31l-58.97-11.5s-78.68-134.3,17.53-130.61Z" style="fill: rgb(254, 184, 28);"/><g class="cls-7_step-one-46"><path class="cls-12_step-one-46" d="m159.57,102.42s6.5,9.98-5.43,19.66c-14.7,11.93-22.69,30.59-18.92,49.15,2.46,12.14,8.75,24.85,22.43,34.92l-31.43-6.13s-22.89-39.11-28.68-73.32c-5.79-34.21,62.03-24.28,62.03-24.28Z"/></g><path class="cls-14_step-one-46 targetColor" d="m158.88,87.79c-5.76-12.1-19.12-18.73-32.36-16.74-24.32,3.64-67.07,15.32-78.7,52.69-16.54,53.13,67.91,81.96,67.91,81.96l5.5-13.27s-80.07-67.78,11.93-76.1c0,0,37.07-4.72,25.73-28.53Z" style="fill: rgb(254, 184, 28);"/><g class="cls-3_step-one-46"><path class="cls-1_step-one-46" d="m158.88,87.79c-5.76-12.1-19.12-18.73-32.36-16.74-24.32,3.64-67.07,15.32-78.7,52.69-16.54,53.13,67.91,81.96,67.91,81.96l5.5-13.27s-80.07-67.78,11.93-76.1c0,0,37.07-4.72,25.73-28.53Z"/></g><path class="cls-11_step-one-46" d="m126.22,200.02l-46.65,141.13,14.74,5.6,42.12-87.98c6.33-12.94,19.99-20.62,34.34-19.31l32.69,1.01c13.08.41,24.56,8.83,28.87,21.19l8.45,24.24,18.17-1.09-11.28-38.62c-4.82-16.5-18.87-28.63-35.9-30.98l-26.59-3.68-58.97-11.5Z"/><path class="cls-2_step-one-46" d="m120.95,194.46s14.8,3.17,10.39,11.96c-4.42,8.79-15.62-.73-15.62-.73l5.23-11.24Z"/><path class="cls-2_step-one-46" d="m279.78,56.91s-3.72-16.31.7-21.16,4.32,11.49,4.32,11.49c0,0,12.86-2.06,6.87,10.58l-11.9-.91Z"/></g><g id="_1_step-one-46"><rect class="cls-13_step-one-46" x="62.81" y="360.32" width="92.28" height="108.59"/><path class="cls-11_step-one-46" d="m105.22,426.71v-17.48l-2.8,1.59c-1.38.79-2.09.5-2.72-.67l-1.97-3.56c-.63-1.17-.29-1.76.84-2.43l8.16-4.68c.96-.59,1.42-.71,2.51-.71h2.51c1.3,0,1.76.46,1.76,1.76v26.18c0,1.3-.46,1.76-1.76,1.76h-4.73c-1.34,0-1.8-.46-1.8-1.76Z"/></g></svg>